<?xml version="1.0" encoding="UTF-8"?>
<svg version="1.1" xmlns="http://www.w3.org/2000/svg" width="1024" height="1024">
<path d="M0 0 C337.92 0 675.84 0 1024 0 C1024 337.92 1024 675.84 1024 1024 C686.08 1024 348.16 1024 0 1024 C0 686.08 0 348.16 0 0 Z " fill="#FDFDFD" transform="translate(0,0)"/>
<path d="M0 0 C58.8740625 -0.12375 58.8740625 -0.12375 118.9375 -0.25 C131.31241943 -0.28641602 143.68733887 -0.32283203 156.43725586 -0.36035156 C171.59484863 -0.37841797 171.59484863 -0.37841797 178.69972229 -0.3817749 C183.64238221 -0.38548861 188.58486879 -0.40042699 193.52748108 -0.42230225 C199.84790327 -0.44990146 206.1680763 -0.4579347 212.48855317 -0.4522891 C214.79827082 -0.45346825 217.1079979 -0.46130326 219.41766346 -0.47686052 C250.29598655 -0.67505104 277.33890189 8.32370418 300.1875 29.75 C320.70617698 51.39180456 327.69799774 77.56859298 327.3359375 106.8125 C326.58073907 130.60437127 314.68459442 152.42608282 298 169 C295.09027196 171.46819116 292.10488708 173.78327211 289 176 C291.29975428 178.46983257 293.75614403 180.26010213 296.5625 182.125 C318.43860191 197.28224092 332.39024268 218.80797596 337.45703125 244.87890625 C337.63621094 245.90886719 337.81539062 246.93882812 338 248 C338.18433594 248.95132813 338.36867188 249.90265625 338.55859375 250.8828125 C342.29650765 277.27976201 333.97216355 305.88048755 318.33203125 327.20849609 C299.09235623 352.46426949 271.72589784 365.53717958 240.84894276 370.62189007 C231.92185323 371.8066879 222.86717816 371.51546026 213.88183594 371.45410156 C211.49647167 371.45287307 209.11110596 371.45341555 206.72574234 371.45556259 C200.39931995 371.45645713 194.07320677 371.43345493 187.74685669 371.40512085 C181.78712097 371.38215956 175.82745641 371.38125859 169.86767578 371.37841797 C152.49507702 371.35751775 135.12253448 371.30167267 117.75 371.25 C59.46375 371.12625 59.46375 371.12625 0 371 C0 248.57 0 126.14 0 0 Z " fill="#000000" transform="translate(256,279)"/>
<path d="M0 0 C168.96 0 337.92 0 512 0 C512 15.18 512 30.36 512 46 C343.04 46 174.08 46 0 46 C0 30.82 0 15.64 0 0 Z " fill="#000000" transform="translate(256,671)"/>
<path d="M0 0 C3.04021747 1.03812304 4.47344114 2.47645094 6.5625 4.875 C7.531875 4.359375 8.50125 3.84375 9.5 3.3125 C13.98041741 1.40012671 17.9084044 1.58119736 22.5625 2.875 C25.125 4.4375 25.125 4.4375 26.5625 6.875 C26.87362695 9.63295588 26.74869486 12.08207715 26.5625 14.875 C27.779375 14.6275 28.99625 14.38 30.25 14.125 C33.81946088 13.64949455 34.34796053 13.73644326 37.5625 15.8125 C38.5525 16.8334375 38.5525 16.8334375 39.5625 17.875 C38.6875 23.625 38.6875 23.625 37.5625 25.875 C38.490625 26.1225 39.41875 26.37 40.375 26.625 C43.89453065 28.0052081 44.99204537 28.4723483 46.5625 31.875 C47.27869542 36.51700733 47.05140172 39.89719655 44.9375 44.125 C42.33627015 47.13695035 39.70681949 49.44529857 36.5625 51.875 C37.2225 52.535 37.8825 53.195 38.5625 53.875 C38.421875 55.86328125 38.421875 55.86328125 37.5625 57.875 C30.99918 62.70548084 23.44048864 63.30877913 15.5625 62.875 C14.53125 62.606875 13.5 62.33875 12.4375 62.0625 C8.57988427 61.81091637 7.34888867 63.31205523 4.44140625 65.66015625 C1.2826455 67.70251507 -1.73310763 67.68003198 -5.4375 67.875 C-10.3739827 83.72370763 -14.15369736 99.43306642 -16.4375 115.875 C-16.64479163 117.31004669 -16.85308778 118.74494872 -17.0625 120.1796875 C-17.53050366 123.41021275 -17.9891629 126.64169829 -18.4375 129.875 C-14.7803177 126.66184646 -12.85048109 123.05404335 -10.75 118.75 C-4.9276621 107.46751188 2.11744515 98.97530121 14.5625 94.875 C23.52751824 93.24730875 33.37596305 95.78044523 41.12890625 100.40625 C46.1665493 104.08309859 46.1665493 104.08309859 47.5625 106.875 C46.7890625 106.97296875 46.015625 107.0709375 45.21875 107.171875 C34.95771071 108.6449945 27.29785247 111.48195968 20.3125 119.4375 C15.01808249 124.13027916 9.51180202 124.84320837 2.57055664 125.23022461 C-4.22181394 125.62740388 -4.22181394 125.62740388 -9.8828125 129.1640625 C-11.69380441 132.00990693 -13.08954334 134.78399593 -14.4375 137.875 C-15.15423298 139.33430014 -15.8784523 140.78994266 -16.609375 142.2421875 C-16.95581055 142.9316748 -17.30224609 143.62116211 -17.65917969 144.33154297 C-17.91602539 144.84088379 -18.17287109 145.35022461 -18.4375 145.875 C-16.86282959 145.85928955 -16.86282959 145.85928955 -15.25634766 145.84326172 C-11.36884967 145.80711547 -7.48136659 145.78411922 -3.59375 145.76513672 C-1.90980534 145.75506683 -0.22587821 145.74141012 1.45800781 145.72412109 C3.87569501 145.69991574 6.29315143 145.68852704 8.7109375 145.6796875 C9.4661972 145.66936493 10.22145691 145.65904236 10.99960327 145.64840698 C12.8554398 145.64800682 14.7106928 145.75277284 16.5625 145.875 C17.2225 146.535 17.8825 147.195 18.5625 147.875 C18.21537846 151.48985194 17.06259323 154.05666562 15.1875 157.125 C8.72402296 168.5719115 7.94163979 180.38737178 10.625 193.1875 C12.44805148 199.51254716 15.76224817 204.5593585 19.5625 209.875 C31.96639926 227.35571644 41.9582871 244.8045347 39.171875 266.984375 C36.38683887 281.33802273 28.5131164 294.48184555 19.5625 305.875 C18.95623779 306.74342529 18.34997559 307.61185059 17.7253418 308.5065918 C12.76417457 312.22162717 7.82047736 311.58977457 1.78125 311.5390625 C0.53500854 311.54384613 -0.71123291 311.54862976 -1.99523926 311.55355835 C-5.30140982 311.55782782 -8.60640061 311.53774459 -11.91241455 311.50976562 C-13.93596878 311.50000738 -15.95843898 311.50973053 -17.98193359 311.52685547 C-21.87388353 311.55774773 -25.76423315 311.5540018 -29.65625 311.5390625 C-30.86156372 311.54918365 -32.06687744 311.55930481 -33.30871582 311.56973267 C-41.67103318 311.45254521 -41.67103318 311.45254521 -45.61401367 308.48144531 C-46.21576416 307.62131836 -46.81751465 306.76119141 -47.4375 305.875 C-48.08332031 305.09382813 -48.72914063 304.31265625 -49.39453125 303.5078125 C-61.53169493 287.10347759 -69.67062486 269.70088315 -67.4375 248.875 C-64.85421925 233.73051658 -56.70200562 221.03167404 -47.65039062 208.94799805 C-38.6599617 196.77024235 -37.2422644 184.6819347 -38.4375 169.875 C-39.62550574 164.1803203 -41.71946555 159.64380682 -45.1875 155 C-47.4375 151.875 -47.4375 151.875 -47.8125 149 C-47.4375 146.875 -47.4375 146.875 -46.4375 145.875 C-44.72977642 145.78786169 -43.01851351 145.76799993 -41.30859375 145.77734375 C-39.75688477 145.78217773 -39.75688477 145.78217773 -38.17382812 145.78710938 C-37.08521484 145.79548828 -35.99660156 145.80386719 -34.875 145.8125 C-33.2362793 145.81926758 -33.2362793 145.81926758 -31.56445312 145.82617188 C-28.85541505 145.83800174 -26.14648401 145.85448457 -23.4375 145.875 C-23.56672123 134.64450052 -23.87098387 124.94621127 -29.4375 114.875 C-29.9015625 113.99199219 -30.365625 113.10898437 -30.84375 112.19921875 C-32.5982367 109.64059231 -33.78451058 108.8519252 -36.5625 107.5625 C-45.9282044 102.65883038 -51.49361042 96.06448967 -56.4375 86.875 C-60.15142298 80.13958036 -64.20552749 74.63116603 -69.58203125 69.1015625 C-71.40328314 66.91606024 -72.05084828 65.65128615 -72.4375 62.875 C-59.13850182 63.47540624 -46.44478562 67.1646294 -37.1875 77.125 C-29.03736939 87.52034565 -25.78831834 101.07326102 -23.4375 113.875 C-22.7775 113.875 -22.1175 113.875 -21.4375 113.875 C-21.43492187 113.15441406 -21.43234375 112.43382812 -21.4296875 111.69140625 C-20.90709285 97.18069472 -17.11629832 82.57877895 -12.4375 68.875 C-12.17663885 66.13595796 -12.10683799 64.51427989 -13.375 62.0625 C-14.4375 59.875 -14.4375 59.875 -14.640625 56.08203125 C-15.09957401 52.11479169 -16.45713415 50.26338389 -19.59082031 47.66674805 C-20.41211426 47.02733276 -20.41211426 47.02733276 -21.25 46.375 C-27.13606983 41.39534345 -30.92776487 37.46261615 -31.8125 29.5 C-31.4375 26.875 -31.4375 26.875 -29.4375 24.875 C-28.1175 24.875 -26.7975 24.875 -25.4375 24.875 C-25.9325 23.39 -25.9325 23.39 -26.4375 21.875 C-27.49108512 11.30904641 -27.49108512 11.30904641 -24.1875 6.8125 C-23.28 6.173125 -22.3725 5.53375 -21.4375 4.875 C-20.7775 4.276875 -20.1175 3.67875 -19.4375 3.0625 C-16.80800685 1.50123844 -15.44311226 1.27387755 -12.4375 1.875 C-10.25 4.3125 -10.25 4.3125 -8.4375 6.875 C-7.4475 7.37 -7.4475 7.37 -6.4375 7.875 C-6.334375 6.92625 -6.23125 5.9775 -6.125 5 C-5.27108029 1.11854678 -4.10008111 -0.21026057 0 0 Z " fill="#010101" transform="translate(692.4375,339.125)"/>
<path d="M0 0 C38.0147175 -0.16121214 38.0147175 -0.16121214 54.00976562 -0.1953125 C65.03075654 -0.21899796 76.05162465 -0.24676162 87.07250977 -0.30175781 C95.10087335 -0.34180147 103.12913679 -0.36747426 111.15759748 -0.37635398 C115.40315022 -0.38153926 119.64841665 -0.39360526 123.89387703 -0.42292023 C127.90187724 -0.45036746 131.90947721 -0.45838687 135.91756248 -0.45243073 C137.37709871 -0.45351803 138.83665039 -0.46129574 140.29610443 -0.4768219 C157.37746568 -0.6493998 173.46899718 3.2049851 186.28515625 15.15625 C189.09415289 18.17640129 191.15860442 21.31720883 193 25 C193.3196875 25.61875 193.639375 26.2375 193.96875 26.875 C197.81982098 36.00346455 197.50422898 48.77955712 194.375 58.0625 C188.97039382 70.33545986 180.57396088 78.79298171 168.04446697 83.88707256 C157.64196568 87.68978391 147.55924412 88.42897189 136.57104492 88.34057617 C135.07160967 88.33972767 133.57217318 88.34020939 132.07273865 88.34190369 C128.04459906 88.34275636 124.01673331 88.32525022 119.98865676 88.30418181 C115.76331113 88.28529205 111.53795764 88.28365496 107.31257629 88.28010559 C99.33019036 88.27082096 91.34792926 88.24625626 83.36559802 88.21605712 C72.56568276 88.17609459 61.76573281 88.16002926 50.96576214 88.14255047 C33.97708145 88.11443212 16.98866405 88.05463894 0 88 C0 58.96 0 29.92 0 0 Z " fill="#FDFCFD" transform="translate(327,496)"/>
<path d="M0 0 C37.34300026 -0.1209091 37.34300026 -0.1209091 53.04101562 -0.14648438 C63.86242966 -0.16425669 74.68377341 -0.1851029 85.50512695 -0.22631836 C93.38770965 -0.25632643 101.2702351 -0.27559996 109.15287334 -0.28226548 C113.32229601 -0.28615852 117.49155498 -0.29523503 121.66092491 -0.31719017 C125.59500424 -0.3377361 129.52885429 -0.34379773 133.46298218 -0.33932304 C134.89754805 -0.34014023 136.33212257 -0.34599718 137.76664162 -0.35761642 C152.09241046 -0.46784121 166.12790199 1.21985252 177.28515625 11.00390625 C187.22463548 21.38926866 189.41370414 32.67523903 189.2109375 46.5078125 C188.83306627 57.78330337 183.95279027 67.58796429 175.75 75.3125 C164.19271573 84.92738355 152.60757266 86.30359343 138.046875 86.22705078 C136.53832507 86.22648593 135.02977459 86.22680467 133.52122498 86.22793579 C129.44533369 86.22850742 125.36956115 86.21678394 121.29369736 86.20278788 C117.0269405 86.1902488 112.76018064 86.18910752 108.4934082 86.18673706 C100.42234955 86.18053161 92.35134535 86.16413348 84.28031063 86.14403808 C73.36779058 86.11746018 62.45525554 86.10669888 51.54271126 86.09503365 C34.36176675 86.07625219 17.18093714 86.03640029 0 86 C0 57.62 0 29.24 0 0 Z " fill="#FDFDFD" transform="translate(327,343)"/>
</svg>
