<?xml version="1.0" encoding="UTF-8"?>
<svg version="1.1" xmlns="http://www.w3.org/2000/svg" width="512" height="512">
<path d="M0 0 C8.28428752 5.96409942 13.14727741 13.91040858 18.56420898 22.36230469 C19.59039301 23.93572775 20.61826953 25.50804808 21.64770508 27.0793457 C23.85501508 30.45314443 26.05323312 33.83262705 28.24536133 37.21630859 C33.78151488 45.75138279 39.40273396 54.23059226 45.00912476 62.71960449 C46.81740541 65.45993406 48.62274271 68.20217335 50.42675781 70.9453125 C59.97376015 85.46150147 69.56840467 99.94592946 79.29467773 114.34277344 C80.51006598 116.16142009 81.72494054 117.98041018 82.93920898 119.79980469 C83.87990234 121.17749023 83.87990234 121.17749023 84.83959961 122.58300781 C91.3879132 132.45789266 94.05192435 141.72462137 92.75170898 153.61230469 C90.22044769 163.78927318 84.77409831 173.14728155 75.76733398 178.87402344 C67.50567285 183.18097469 60.17226289 183.90459225 50.96769714 183.8730011 C49.78454164 183.87682665 48.60138614 183.88065219 47.38237745 183.88459367 C44.11099593 183.89310905 40.83975836 183.8926968 37.56837308 183.88841307 C34.03519922 183.8859423 30.50205155 183.89496442 26.96888733 183.90245056 C20.05157653 183.91519032 13.13430456 183.91699212 6.216984 183.9146503 C0.59270878 183.91286599 -5.03155467 183.91461919 -10.65582848 183.91887474 C-11.45684758 183.91946993 -12.25786668 183.92006512 -13.08315909 183.92067834 C-14.71054104 183.92189012 -16.33792299 183.92310426 -17.96530493 183.92432072 C-33.22240681 183.9351937 -48.47948657 183.93303505 -63.73658969 183.92693587 C-77.68418101 183.92176822 -91.63170244 183.93301858 -105.57927994 183.95203409 C-119.91037371 183.97142224 -134.24143444 183.9796667 -148.57254142 183.97591084 C-156.61442755 183.97400011 -164.65625423 183.97647374 -172.69812965 183.99062538 C-179.54515436 184.00255268 -186.39208302 184.00392906 -193.23910908 183.99183521 C-196.72999335 183.98595566 -200.22070208 183.98482127 -203.71157455 183.99683762 C-207.50232135 184.00729706 -211.29259825 183.99920998 -215.08332825 183.98652649 C-216.72503588 183.99758792 -216.72503588 183.99758792 -218.39990932 184.00887281 C-230.25278486 183.92560115 -238.63705725 181.02073987 -247.15844727 172.76074219 C-255.02231723 164.37929267 -257.65707177 155.42855132 -257.51782227 144.12402344 C-256.26143438 127.75456384 -244.48850136 117.54778975 -233.48657227 106.65527344 C-232.36611023 105.53855416 -231.24609825 104.42138316 -230.12651062 103.30378723 C-227.20502255 100.3898598 -224.277583 97.48198672 -221.34875488 94.57543945 C-218.37086365 91.6180826 -215.39868183 88.65499986 -212.42602539 85.69238281 C-207.19914466 80.48453287 -201.96736476 75.28165079 -196.73188782 70.08244324 C-195.01659352 68.37644387 -193.30488948 66.66682978 -191.59611511 64.95429993 C-183.624075 57.00205171 -175.74067319 53.10390121 -164.32641602 52.51855469 C-152.86836422 52.86753088 -143.51287244 57.58361644 -135.18579102 65.23730469 C-127.80109118 72.00786113 -119.26329628 73.99690889 -109.47875977 73.88964844 C-100.15126753 73.08886011 -91.7072745 68.78815806 -85.59912109 61.69799805 C-81.1398856 55.94463718 -77.11266416 49.98858416 -73.18579102 43.86230469 C-71.87270227 41.83449884 -70.55888263 39.80716612 -69.24438477 37.78027344 C-68.58293457 36.75853027 -67.92148437 35.73678711 -67.23999023 34.68408203 C-64.09565998 29.83461362 -60.93213383 24.99841531 -57.74829102 20.17480469 C-56.92252563 18.90781738 -56.92252563 18.90781738 -56.08007812 17.61523438 C-48.91128374 6.7866332 -41.7865152 -1.45472884 -28.87329102 -4.87988281 C-18.94890128 -6.79977964 -8.67052064 -5.35163854 0 0 Z " fill="#000000" transform="translate(338.248291015625,243.3876953125)"/>
<path d="M0 0 C13.31161058 11.56935567 21.20390353 26.96112084 22.9375 44.375 C23.99306536 62.67146623 18.89778594 79.50873124 6.90234375 93.47265625 C-6.02896178 107.05974907 -22.43141489 114.67826399 -41.25 115.1875 C-59.57359416 114.61072827 -75.38835112 108.50368672 -88.328125 95.46484375 C-100.13418284 82.8605776 -106.43508491 67.81572179 -106.25 50.5 C-106.24242676 49.49743164 -106.23485352 48.49486328 -106.22705078 47.46191406 C-105.83188475 29.57271908 -98.48409676 14.07508085 -85.5703125 1.65625 C-60.70541289 -19.54005786 -25.6681126 -19.75297492 0 0 Z " fill="#000000" transform="translate(229.8125,99.1875)"/>
</svg>
